<?xml version="1.0" encoding="UTF-8" standalone="no"?>
<svg width="1501px" height="601px" viewBox="0 0 1501 601" version="1.1" xmlns="http://www.w3.org/2000/svg" xmlns:xlink="http://www.w3.org/1999/xlink" xmlns:sketch="http://www.bohemiancoding.com/sketch/ns">
    <!-- Generator: Sketch 3.3.3 (12072) - http://www.bohemiancoding.com/sketch -->
    <title>narwahl</title>
    <desc>Created with Sketch.</desc>
    <defs>
        <radialGradient cx="37.5992549%" cy="5.19997229%" fx="37.5992549%" fy="5.19997229%" r="59.389358%" id="radialGradient-1">
            <stop stop-color="#6EA2B0" offset="0%"></stop>
            <stop stop-color="#344D54" offset="78.8758849%"></stop>
            <stop stop-color="#000000" offset="100%"></stop>
        </radialGradient>
    </defs>
    <g id="Page-1" stroke="none" stroke-width="1" fill="none" fill-rule="evenodd" sketch:type="MSPage">
        <g id="Oval-1-+-Oval-1-Copy-2" sketch:type="MSLayerGroup" transform="translate(241.000000, 421.000000)" fill="#CE0000">
            <path d="M232,85 C360.130062,85 464,65.9721019 464,42.5 C464,19.0278981 360.130062,0 232,0 C103.869938,0 0,19.0278981 0,42.5 C0,65.9721019 103.869938,85 232,85 Z M232.5,71 C316.17114,71 384,58.463973 384,43 C384,27.536027 316.17114,15 232.5,15 C148.82886,15 81,27.536027 81,43 C81,58.463973 148.82886,71 232.5,71 Z" id="Oval-1" sketch:type="MSShapeGroup"></path>
            <ellipse id="Oval-1-Copy-2" sketch:type="MSShapeGroup" cx="232" cy="43" rx="77" ry="14"></ellipse>
        </g>
        <g id="Oval-1-+-Oval-1-Copy-3" sketch:type="MSLayerGroup" transform="translate(847.000000, 421.000000)" fill="#CE0000">
            <path d="M232,85 C360.130062,85 464,65.9721019 464,42.5 C464,19.0278981 360.130062,0 232,0 C103.869938,0 0,19.0278981 0,42.5 C0,65.9721019 103.869938,85 232,85 Z M232.5,71 C316.17114,71 384,58.463973 384,43 C384,27.536027 316.17114,15 232.5,15 C148.82886,15 81,27.536027 81,43 C81,58.463973 148.82886,71 232.5,71 Z" id="Oval-1" sketch:type="MSShapeGroup"></path>
            <ellipse id="Oval-1-Copy-2" sketch:type="MSShapeGroup" cx="232" cy="43" rx="77" ry="14"></ellipse>
        </g>
        <path d="M928,464 L625,464 C625,479.463973 557.17114,492 473.5,492 C389.82886,492 322,479.463973 322,464 L51,464 L51,1 L1500,1 L1500,464 L1231,464 C1231,479.463973 1163.17114,492 1079.5,492 C995.82886,492 928,479.463973 928,464 Z" id="Rectangle-1" stroke="#979797" fill="#D8D8D8" sketch:type="MSShapeGroup"></path>
        <g id="Group" sketch:type="MSLayerGroup" transform="translate(445.000000, 452.000000) scale(-1, 1) translate(-445.000000, -452.000000) translate(2.000000, 306.000000)">
            <path d="M367.027344,109.216797 C367.027344,109.216797 363.027344,126.966797 366.527344,147.216797 C370.027344,167.466797 369.027345,172.466797 385.277344,178.466797 C401.527342,184.466797 406.527345,191.216797 409.777344,193.466797 C413.027342,195.716797 411.027344,194.466797 411.027344,194.466797 L416.277344,193.216797 C416.277344,193.216797 413.027345,188.216797 418.277344,178.466797 C423.527342,168.716797 429.777345,158.918667 425.527344,155.466797 C421.277342,152.014927 406.527343,146.716797 400.277344,136.466797 C394.027344,126.216797 395.027344,117.216797 395.027344,117.216797 L367.027344,109.216797 Z" id="Path-3" fill="#030F25" sketch:type="MSShapeGroup"></path>
            <path d="M749.435239,226.198489 C755.935239,219.198489 752.531337,221.088541 775.031337,217.588541 C797.531337,214.088541 801.031334,220.088541 816.031337,215.588541 C831.03134,211.088541 852.031334,211.588541 866.031337,206.588541 C880.03134,201.588541 896.531337,196.088541 896.531337,196.088541 C896.531337,196.088541 883.531334,196.088541 871.031337,198.588541 C858.53134,201.088541 855.031337,190.588541 835.531337,194.588541 C816.031336,198.588541 769.031337,203.588541 769.031337,203.588541 L747.031337,215.088541 L730.332513,226.198489 L734.083743,237.270144 C734.083743,237.270144 742.935239,233.198489 749.435239,226.198489 Z" id="Path-7" stroke="#979797" fill="#437187" sketch:type="MSShapeGroup" transform="translate(813.431925, 215.469670) rotate(48.000000) translate(-813.431925, -215.469670) "></path>
            <path d="M397.509541,8.33203125 C397.509541,8.33203125 332.509541,0.33203125 302.509541,11.3320313 C272.509541,22.3320313 278.509541,48.3320329 286.509541,66.3320313 C294.509541,84.3320296 322.263224,97.3320329 330.509541,97.3320313 C338.755859,97.3320296 367.509541,118.332031 367.509541,118.332031 L386.509541,126.332031 C386.509541,126.332031 416.509535,122.332033 450.509541,122.332031 C484.509547,122.33203 482.509551,131.332033 535.509541,150.332031 C588.509532,169.33203 648.301514,156.634951 720.997823,165.457031 C724.904037,165.931071 742.66212,172.15772 742.66212,172.15772 L766.78712,175.15772 L761.197276,170.156255 L750.388683,159.934575 C750.388683,159.934575 738.263683,151.559575 721.997823,137.457031 C705.731963,123.354487 641.997832,63.457031 613.997823,50.4570312 C585.997813,37.4570315 548.997823,34.4570312 548.997823,34.4570312 C548.997823,34.4570312 531.997817,23.457031 470.997823,7.45703125 C409.997829,-8.54296852 397.509541,8.33203125 397.509541,8.33203125 Z" id="Path-1" fill="url(#radialGradient-1)" sketch:type="MSShapeGroup"></path>
            <path d="M577.355469,142.75 C577.355469,142.75 530.355469,130.25 525.855469,126.75 C521.355469,123.25 509.355469,115.25 501.855469,105.5 C494.355469,95.75 490.855469,91.5 489.605469,86.75 C488.355469,82 487.355469,80.5 494.605469,80.5 C501.855469,80.5 507.855469,83 507.855469,83 L516.355469,84.75 C516.355469,84.75 520.35547,91 535.105469,99.25 C549.855468,107.5 557.10547,105.75 564.855469,115.5 C572.605468,125.25 569.10547,128.75 570.605469,132.75 C572.105468,136.75 577.355469,142.75 577.355469,142.75 Z" id="Path-2" fill="#6EA2B0" sketch:type="MSShapeGroup"></path>
            <path d="M39.2822266,68.0654297 C16.8814875,69.8488249 0.782226562,69.8154297 0.782226562,69.8154297 C0.782226562,69.8154297 17.6087078,67.0899358 39.2822266,64.5654297 C117.42902,55.4629827 283.243164,36.6845703 283.243164,36.6845703 L283.743164,47.6845703 C283.743164,47.6845703 116.868467,61.8885384 39.2822266,68.0654297 Z" id="Path-4" fill="#030F25" sketch:type="MSShapeGroup"></path>
            <path d="M58.2822266,65.8154297 C35.8814875,67.5988249 11.3984375,68.4990234 11.3984375,68.4990234 C11.3984375,68.4990234 34.2249187,65.5235295 55.8984375,62.9990234 C134.045231,53.8965764 275.490234,38.8378906 275.490234,38.8378906 L276.990234,45.8378906 C276.990234,45.8378906 135.868467,59.6385384 58.2822266,65.8154297 Z" id="Path-4-Copy" fill="#437187" sketch:type="MSShapeGroup"></path>
            <path d="M360.543945,49.7744141 C360.543946,35.7685542 306.77016,46.839188 287.34668,64.7685543 C284.604808,67.2995127 287.159585,67.7211357 290.59668,66.2685542 C291.167296,66.0274009 312.274982,54.688207 312.846679,54.4495635 C322.887351,50.2582837 324.753202,52.0561483 335.043945,48.5244141 C338.275592,47.4153282 341.633613,46.4823612 345.043945,46.2744141 C348.553265,46.0604312 352.043945,46.9410807 355.543945,47.2744141 L360.543945,49.7744141 Z" id="Path-6" fill="#030F25" sketch:type="MSShapeGroup"></path>
            <ellipse id="Oval-9" fill="#030F25" sketch:type="MSShapeGroup" cx="313.5" cy="26" rx="4.5" ry="4"></ellipse>
        </g>
    </g>
</svg>